<svg xmlns="http://www.w3.org/2000/svg" viewBox="0 0 84 64" role="img" aria-labelledby="title desc">
  <title id="title">Abyssal serpent head placeholder</title>
  <desc id="desc">A dark bioluminescent head part for an articulated abyss creature.</desc>
  <defs>
    <linearGradient id="headFill" x1="0" y1="0" x2="1" y2="1">
      <stop offset="0" stop-color="#14283a"/>
      <stop offset="0.54" stop-color="#172130"/>
      <stop offset="1" stop-color="#05070d"/>
    </linearGradient>
    <radialGradient id="glow" cx="0.7" cy="0.42" r="0.55">
      <stop offset="0" stop-color="#a9fff3" stop-opacity="0.82"/>
      <stop offset="0.45" stop-color="#38b8c6" stop-opacity="0.22"/>
      <stop offset="1" stop-color="#38b8c6" stop-opacity="0"/>
    </radialGradient>
  </defs>
  <path d="M6 33 C14 12 45 6 72 21 C80 25 80 39 72 44 C45 62 14 54 6 33Z" fill="url(#headFill)" stroke="#6ee7d8" stroke-width="1.6"/>
  <path d="M27 16 C43 14 58 21 70 31 C56 27 40 28 22 35 C19 29 21 21 27 16Z" fill="#243c53" opacity="0.72"/>
  <path d="M16 35 C30 45 52 45 70 35" fill="none" stroke="#05070d" stroke-width="5" stroke-linecap="round"/>
  <circle cx="58" cy="25" r="3.2" fill="#bafdf5"/>
  <circle cx="58" cy="25" r="8" fill="url(#glow)"/>
  <path d="M11 31 C5 28 2 24 1 18 C8 20 13 24 18 29Z" fill="#2e6672" stroke="#75f6de" stroke-width="1.2" opacity="0.82"/>
  <path d="M13 38 C7 40 3 45 1 51 C9 50 15 46 20 39Z" fill="#27515e" stroke="#75f6de" stroke-width="1.2" opacity="0.72"/>
</svg>
